Coordinates
version=1
nRows=24
nColumns=24
inDegrees=yes

Units are S.I. units (second, meters, Newtons, ...)
Angles are in degrees.

endheader
time	pelvis_tilt	pelvis_list	pelvis_rotation	pelvis_tx	pelvis_ty	pelvis_tz	hip_flexion_r	hip_adduction_r	hip_rotation_r	knee_angle_r	ankle_angle_r	subtalar_angle_r	mtp_angle_r	hip_flexion_l	hip_adduction_l	hip_rotation_l	knee_angle_l	ankle_angle_l	subtalar_angle_l	mtp_angle_l	lumbar_extension	lumbar_bending	lumbar_rotation
      3.56500000	     -7.94451766	     -2.96067483	      2.44377701	     -0.69388759	     -0.01458539	      0.68193919	      6.32949852	      4.96578719	      8.92715998	    -18.18305786	      8.94053444	     -8.51449422	      5.39318662	     40.35953527	     -2.66240950	     -3.66518012	    -60.20578348	    -10.02663242	     -1.87596267	     15.38828389	      5.41401460	      9.36515729	     -1.85526626
      3.57000000	     -7.83722073	     -2.79865751	      2.25129052	     -0.68724325	     -0.01489929	      0.68203854	      5.55715925	      4.77979638	      9.09143642	    -17.76100158	      9.17627497	     -8.32059832	      5.31400609	     40.57445582	     -2.54003933	     -3.64498787	    -58.98673450	     -9.31198648	     -1.88916172	     13.72333443	      5.15596305	      9.18645461	     -1.63079154
      3.57500000	     -7.93851997	     -2.67717281	      2.00150841	     -0.68058188	     -0.01552216	      0.68234097	      5.03612224	      4.64821217	      9.33288242	    -17.38284798	      9.36530122	     -8.22188609	      5.34477079	     40.97297624	     -2.49728348	     -3.58501960	    -57.63645975	     -9.04710649	     -1.94699039	     13.50843736	      5.13367702	      9.02706853	     -1.37932019
      3.58000000	     -7.88204966	     -2.52742658	      1.79188110	     -0.67392132	     -0.01600873	      0.68255962	      4.32424003	      4.47305581	      9.53245292	    -16.96655134	      9.57832689	     -8.07284762	      5.34732426	     41.15488000	     -2.40141448	     -3.50246149	    -56.20995916	     -8.73550920	     -2.05693361	     12.96763317	      4.93355866	      8.83935521	     -1.13308576
      3.58500000	     -7.80116790	     -2.42160016	      1.60393761	     -0.66723359	     -0.01655042	      0.68272293	      3.57421615	      4.32945080	      9.71492956	    -16.53031645	      9.82574152	     -7.82149190	      5.33110680	     41.29768384	     -2.33655179	     -3.39732165	    -54.77038644	     -8.27947794	     -2.13563541	     11.88007344	      4.72018127	      8.69407445	     -0.97238345
      3.59000000	     -7.82571145	     -2.29839841	      1.42309907	     -0.66051656	     -0.01723341	      0.68290508	      2.95966480	      4.16614056	      9.83729359	    -16.13266869	     10.01249843	     -7.67867454	      5.32011129	     41.49673304	     -2.23204002	     -3.23059870	    -53.22472794	     -7.89043262	     -2.22266320	     11.06210178	      4.62220140	      8.51900091	     -0.75749114
      3.59500000	     -7.77733494	     -2.20336177	      1.25250995	     -0.65380580	     -0.01788444	      0.68306282	      2.25113794	      4.01969109	      9.96641470	    -15.70211364	     10.21464882	     -7.41308702	      5.33548391	     41.59166921	     -2.16146021	     -3.06045746	    -51.64042248	     -7.45245948	     -2.28454069	     10.02170334	      4.44670776	      8.37189879	     -0.63209440
      3.60000000	     -7.80372197	     -2.13655358	      1.10730851	     -0.64703015	     -0.01871546	      0.68317833	      1.63434776	      3.89610002	      9.99274859	    -15.29500768	     10.42052617	     -7.15604648	      5.37123187	     41.74503745	     -2.09070224	     -2.83098979	    -50.05730803	     -6.69157425	     -2.19790133	      8.31149728	      4.36650598	      8.24568478	     -0.50477528
      3.60500000	     -7.88430912	     -2.03198813	      0.92672209	     -0.64022166	     -0.01956984	      0.68345133	      1.07035111	      3.74498536	     10.13348147	    -14.87992898	     10.55342546	     -7.03676483	      5.40112683	     41.88236555	     -2.03607262	     -2.67308351	    -48.29870194	     -6.50835920	     -2.39301473	      7.96119422	      4.34594520	      8.06364609	     -0.36415665
      3.61000000	     -7.73134007	     -1.90017748	      0.73997700	     -0.63353039	     -0.02020408	      0.68364361	      0.27786905	      3.54271938	     10.14144426	    -14.48819201	     10.74743801	     -6.67984882	      5.50523909	     41.72087503	     -1.95300536	     -2.51083511	    -46.49995624	     -6.07638223	     -2.52956698	      7.04131547	      4.03398110	      7.86730059	     -0.14143291
      3.61500000	     -7.74706810	     -1.81918252	      0.61181840	     -0.62666844	     -0.02111024	      0.68374100	     -0.34212363	      3.38318335	     10.05887786	    -14.09222291	     10.91819330	     -6.29567816	      5.71954133	     41.75189315	     -1.86845856	     -2.26667630	    -44.80155476	     -5.02755138	     -2.33489405	      4.57018844	      3.95006119	      7.70845070	     -0.06602101
      3.62000000	     -7.75420471	     -1.68947893	      0.38964264	     -0.61984050	     -0.02197802	      0.68407381	     -0.95405608	      3.19301496	     10.16087600	    -13.72781822	     11.05254337	     -6.07539991	      5.79107276	     41.68888918	     -1.83737737	     -2.16007142	    -42.90906582	     -4.71945656	     -2.48716987	      4.09777674	      3.83480523	      7.49141710	      0.15271792
      3.62500000	     -7.65448130	     -1.54249519	      0.20403318	     -0.61299628	     -0.02275515	      0.68433862	     -1.67010790	      2.96442256	     10.09609720	    -13.37802520	     11.21685438	     -5.63230463	      5.95679502	     41.48145990	     -1.76699529	     -2.01096148	    -41.02065205	     -4.16785830	     -2.42552999	      3.16518431	      3.60326760	      7.24868879	      0.31706537
      3.63000000	     -7.60364361	     -1.38476203	     -0.01252516	     -0.60607543	     -0.02363125	      0.68463674	     -2.31635958	      2.72181139	     10.02419029	    -13.06180320	     11.38911825	     -5.17771736	      6.18740549	     41.30030162	     -1.71236252	     -1.91511981	    -39.14863717	     -3.42788085	     -2.28178746	      1.86127207	      3.43464978	      6.99194233	      0.52095755
      3.63500000	     -7.65750377	     -1.25718473	     -0.11225601	     -0.59899124	     -0.02471221	      0.68470537	     -2.86367016	      2.50684905	      9.81863201	    -12.73847866	     11.50773644	     -4.80070694	      6.53321899	     41.24593937	     -1.57829938	     -1.68228608	    -37.37630313	     -2.27049875	     -2.02913679	     -0.66705337	      3.42535165	      6.76062451	      0.57168412
      3.64000000	     -7.68391048	     -1.19545875	     -0.41403378	     -0.59204352	     -0.02580904	      0.68521639	     -3.37714185	      2.38390539	      9.87485434	    -12.51840173	     11.65748498	     -4.40767488	      6.65337121	     41.13225557	     -1.71529292	     -1.67190560	    -35.55900308	     -1.66358414	     -1.64777127	     -0.86562362	      3.33789795	      6.59340032	      0.86186770
      3.64500000	     -7.63930642	     -1.02322193	     -0.65975930	     -0.58496485	     -0.02680366	      0.68561763	     -3.96144777	      2.12620461	      9.78081571	    -12.31848157	     11.83542169	     -3.88953408	      6.85839604	     40.89012077	     -1.69873841	     -1.66878634	    -33.72750776	     -1.05236083	     -1.28243108	     -1.28551587	      3.19695511	      6.29727186	      1.08809957
      3.65000000	     -7.62021739	     -0.85109720	     -0.92038678	     -0.57789722	     -0.02784190	      0.68600625	     -4.47482473	      1.86391752	      9.67140075	    -12.19273818	     12.00384146	     -3.30968389	      7.14305742	     40.66997624	     -1.69073731	     -1.67851287	    -31.96691849	     -0.40117694	     -0.78219407	     -1.82897169	      3.07962578	      6.00190376	      1.31023724
      3.65500000	     -7.63598068	     -0.68285679	     -1.18248552	     -0.57070517	     -0.02897425	      0.68640538	     -4.93525329	      1.60813763	      9.56240163	    -12.10607917	     12.16546536	     -2.75648159	      7.44850736	     40.48130193	     -1.69443525	     -1.73439101	    -30.29659450	      0.28223875	     -0.18142278	     -2.25464214	      3.02403780	      5.70218522	      1.53673707
      3.66000000	     -7.66846576	     -0.50892248	     -1.45480609	     -0.56343798	     -0.03014979	      0.68681800	     -5.35010836	      1.34674933	      9.45866985	    -12.07451552	     12.31882433	     -2.20083018	      7.75830192	     40.30475961	     -1.70452804	     -1.83882115	    -28.72178415	      0.92453094	      0.50710816	     -2.47835072	      2.99949143	      5.39233351	      1.76966221
      3.66500000	     -7.70026464	     -0.31509808	     -1.74124001	     -0.55611017	     -0.03133606	      0.68723343	     -5.73097024	      1.06081751	      9.35267443	    -12.10741464	     12.47104621	     -1.60915367	      8.10308394	     40.11905818	     -1.70481188	     -1.98602042	    -27.25185116	      1.51072922	      1.25662547	     -2.53855978	      2.98379682	      5.05722687	      2.01097299
      3.67000000	     -7.73116288	     -0.10385848	     -2.04495529	     -0.54871143	     -0.03253299	      0.68766963	     -6.07823651	      0.75305481	      9.24465850	    -12.20367234	     12.61693552	     -0.98346729	      8.49513008	     39.92724104	     -1.69903383	     -2.17410749	    -25.90570324	      2.03404173	      2.04528814	     -2.42461709	      2.97850044	      4.69932048	      2.26789714
      3.67500000	     -7.76786857	      0.11334659	     -2.36883970	     -0.54121909	     -0.03374884	      0.68810756	     -6.39100761	      0.43403913	      9.14004863	    -12.35103906	     12.74096161	     -0.33799776	      8.91730530	     39.74131465	     -1.69732874	     -2.40849494	    -24.70398612	      2.49847457	      2.83976874	     -2.12088208	      2.99735759	      4.33432469	      2.55059985
      3.68000000	     -7.79850232	      0.35058863	     -2.71119821	     -0.53367003	     -0.03495843	      0.68857201	     -6.66853420	      0.08986825	      9.03799015	    -12.57136191	     12.85021904	      0.34165918	      9.42177418	     39.54549381	     -1.68249402	     -2.66350123	    -23.64216791	      2.85184564	      3.58736625	     -1.60184910	      3.01527004	      3.94346066	      2.84721924
